<?xml version="1.0" encoding="iso-8859-1"?>
<!-- Generator: Adobe Illustrator 19.0.0, SVG Export Plug-In . SVG Version: 6.00 Build 0)  -->
<svg version="1.1" id="Capa_1" xmlns="http://www.w3.org/2000/svg" xmlns:xlink="http://www.w3.org/1999/xlink" x="0px" y="0px"
	 viewBox="0 0 511.433 511.433" style="enable-background:new 0 0 511.433 511.433;" xml:space="preserve">
<g>
	<g>
		<path d="M418.829,409.905l-94.846-56.938l-0.009-26.479c11.702-15.338,19.978-33.008,24.271-51.817
			c0.906-4.666,3.17-8.961,6.508-12.346c7.642-7.601,11.926-17.943,11.896-28.721v-30.333c-0.006-6.305-1.474-12.524-4.288-18.167
			l-1.762-3.521c-1.631-3.271-2.481-6.875-2.483-10.529v-54.872l65.538-23.936c6.757-2.429,11.262-8.837,11.262-16.017
			s-4.506-13.588-11.262-16.017L261.667,1.05c-3.843-1.4-8.057-1.4-11.9,0L87.783,60.213c-6.777,2.403-11.295,8.826-11.267,16.017
			v59.733c0,4.713,3.82,8.533,8.533,8.533s8.533-3.82,8.533-8.533V94.366l59.733,21.817v54.872
			c-0.003,3.656-0.854,7.262-2.487,10.533l-1.754,3.513c-2.816,5.644-4.285,11.864-4.292,18.171v30.333
			c-0.028,10.786,4.262,21.135,11.913,28.738c3.33,3.381,5.588,7.67,6.492,12.329c4.284,18.791,12.558,36.442,24.263,51.754
			l-0.042,26.563l-94.813,56.921c-20.493,12.393-33.053,34.564-33.146,58.513v34.475c0,4.713,3.82,8.533,8.533,8.533H221.56
			l0.023,0.004l0.028-0.004h68.212l0.028,0.004l0.023-0.004H443.45c4.713,0,8.533-3.82,8.533-8.533v-34.475
			C451.889,444.47,439.327,422.296,418.829,409.905z M338.252,381.435l-46.881,25.577l-20.709-20.705l44.23-18.956
			c0.127,0.079,0.22,0.194,0.35,0.27L338.252,381.435z M271.251,411.03l-11.272,15.066h-8.525l-11.272-15.066l15.534-15.534
			L271.251,411.03z M93.638,76.246l162.171-59.163l162.121,59.071l-0.129,0.058h-0.004l-162.171,59.162L93.638,76.246z
			 M341.05,122.415v33.422l-68.154,27.913c-11.004,4.533-23.354,4.533-34.358,0l-68.154-27.913v-33.422l79.383,28.993
			c3.843,1.4,8.057,1.4,11.9,0L341.05,122.415z M179.913,271.279L179.913,271.279c-1.566-7.955-5.452-15.27-11.167-21.021
			c-4.429-4.408-6.912-10.405-6.896-16.654v-30.333c0.003-3.656,0.854-7.262,2.487-10.533l1.754-3.513
			c2.323-4.697,3.717-9.798,4.107-15.023l61.872,25.34c15.146,6.244,32.146,6.244,47.292,0l61.872-25.34
			c0.39,5.224,1.783,10.323,4.103,15.019l1.762,3.521c1.631,3.271,2.481,6.875,2.483,10.529v30.333
			c0.015,6.257-2.474,12.26-6.913,16.671c-5.707,5.748-9.586,13.056-11.15,21.004c-3.857,16.439-11.159,31.872-21.425,45.279
			c-2.057,2.88-3.168,6.328-3.179,9.867v25.779l-51.2,21.942l-51.2-21.942v-25.779c-0.017-3.579-1.154-7.062-3.25-9.962
			C191.033,303.081,183.755,287.681,179.913,271.279z M196.088,367.683c0.164-0.095,0.28-0.239,0.44-0.339l44.244,18.962
			l-20.709,20.706l-46.881-25.577L196.088,367.683z M76.516,494.363l0-25.941c-0.06-17.998,9.399-34.688,24.871-43.883
			l48.838-29.321l56.654,99.145H76.516z M219.974,482.881l-46.889-82.056l44.411,24.229c1.253,0.683,2.657,1.041,4.083,1.042
			c2.265,0.001,4.437-0.898,6.037-2.5l0.372-0.372l9.564,12.78L219.974,482.881z M233.898,494.363l19.2-51.2h5.236l19.2,51.2
			H233.898z M273.881,436.004l9.564-12.78l0.372,0.372c2.677,2.677,6.797,3.271,10.12,1.458l44.411-24.229l-46.889,82.056
			L273.881,436.004z M304.554,494.363l56.654-99.145l48.83,29.316c15.476,9.195,24.938,25.886,24.879,43.888l0,25.941H304.554z"/>
	</g>
</g>
<g>
</g>
<g>
</g>
<g>
</g>
<g>
</g>
<g>
</g>
<g>
</g>
<g>
</g>
<g>
</g>
<g>
</g>
<g>
</g>
<g>
</g>
<g>
</g>
<g>
</g>
<g>
</g>
<g>
</g>
</svg>
